<svg width="100" height="100" viewBox="0 0 100 100" fill="none" xmlns="http://www.w3.org/2000/svg">
<line x1="6" y1="49.5" x2="94" y2="49.5" stroke="black"/>
<path d="M13.1426 25.0938L20.4844 42.6621L27.8535 25.0938H30.0957V45H28.4141V36.332L28.5508 27.4453L21.1406 45H19.8418L12.459 27.5137L12.5957 36.2773V45H10.9141V25.0938H13.1426ZM37.1914 45H35.5098V25.0938H37.1914V45ZM42.6055 45V25.0938H48.1699C49.8014 25.0938 51.2643 25.4674 52.5586 26.2148C53.8529 26.9531 54.86 28.015 55.5801 29.4004C56.3092 30.7858 56.6738 32.3626 56.6738 34.1309V35.9629C56.6738 37.7402 56.3138 39.3171 55.5938 40.6934C54.8737 42.0697 53.8574 43.1315 52.5449 43.8789C51.2415 44.6263 49.7422 45 48.0469 45H42.6055ZM44.2871 26.5293V43.5781H48.0605C50.1569 43.5781 51.8385 42.8854 53.1055 41.5C54.3724 40.1055 55.0059 38.2233 55.0059 35.8535V34.1035C55.0059 31.8158 54.3815 29.9837 53.1328 28.6074C51.8841 27.2311 50.2389 26.5384 48.1973 26.5293H44.2871ZM65.4375 35.1152L62.6348 37.877V45H60.9531V25.0938H62.6348V35.8262L72.834 25.0938H74.9531L66.6133 33.9531L75.5957 45H73.5449L65.4375 35.1152ZM89.3633 39.4219H80.3262L78.2754 45H76.5117L84.0449 25.0938H85.6445L93.1777 45H91.4277L89.3633 39.4219ZM80.8457 37.9863H88.8301L84.8379 27.1445L80.8457 37.9863Z" fill="#00B6FF"/>
<path d="M22.8477 72.0156C22.8477 71.6966 22.9479 71.4277 23.1484 71.209C23.3581 70.9811 23.6452 70.8672 24.0098 70.8672C24.3743 70.8672 24.6615 70.9811 24.8711 71.209C25.0807 71.4277 25.1855 71.6966 25.1855 72.0156C25.1855 72.3346 25.0807 72.599 24.8711 72.8086C24.6615 73.0091 24.3743 73.1094 24.0098 73.1094C23.6452 73.1094 23.3581 73.0091 23.1484 72.8086C22.9479 72.599 22.8477 72.3346 22.8477 72.0156ZM30.0801 73V53.0938H35.6445C37.276 53.0938 38.7389 53.4674 40.0332 54.2148C41.3275 54.9531 42.3346 56.015 43.0547 57.4004C43.7839 58.7858 44.1484 60.3626 44.1484 62.1309V63.9629C44.1484 65.7402 43.7884 67.3171 43.0684 68.6934C42.3483 70.0697 41.332 71.1315 40.0195 71.8789C38.7161 72.6263 37.2168 73 35.5215 73H30.0801ZM31.7617 54.5293V71.5781H35.5352C37.6315 71.5781 39.3132 70.8854 40.5801 69.5C41.847 68.1055 42.4805 66.2233 42.4805 63.8535V62.1035C42.4805 59.8158 41.8561 57.9837 40.6074 56.6074C39.3587 55.2311 37.7135 54.5384 35.6719 54.5293H31.7617ZM59.4199 63.457H50.1094V71.5781H60.8145V73H48.4277V53.0938H60.7461V54.5293H50.1094V62.0352H59.4199V63.457ZM70.3711 70.5391L70.4805 70.9629L70.6035 70.5391L76.8652 53.0938H78.7109L71.3008 73H69.6875L62.2773 53.0938H64.1094L70.3711 70.5391Z" fill="#EB5757"/>
</svg>
